<svg width="420" height="132" viewBox="0 0 420 132" xmlns="http://www.w3.org/2000/svg" xmlns:xlink="http://www.w3.org/1999/xlink"><title>Ritual Logo@2x</title><defs><path id="a" d="M0.553177778 0.427111111L30.3834444 0.427111111 30.3834444 30.6603778 0.553177778 30.6603778z"/></defs><g fill="none" fill-rule="evenodd"><path d="M96 131L69.522 91.137c16.059-8.06 25.038-22.302 25.038-39.934C94.56 24.83 74.994 5 40.245 5H0v126h22.516V97.406h24.51L69.007 131H96zM42.55 74.24H22.516V28.166H42.55c15.956 0 28.367 7.177 28.367 23.037S58.507 74.24 42.55 74.24z" fill="#FFD500" fill-rule="nonzero"/><path fill="#FFD500" fill-rule="nonzero" d="M397 131L420 131 420 5 397 5z"/><g transform="translate(138 11)" fill="#FFD500" fill-rule="nonzero"><path d="M50.11 49.808V29.449H34.666V.201H12.033V29.45H.462v20.359h11.571v46.255c0 8.09 1.93 12.857 5.797 17.661 4.467 4.568 10.834 6.888 16.263 7.209 8.17.483 15.526-1.712 19.86-4.744v-21.2c-2.97 2.359-6.621 4.505-11.528 4.505-4.905 0-7.396-2.582-7.758-8.11V49.808H50.11zm96.968 69.516h-20.294l-2.102-10.245c-4.155 5.392-12.706 11.324-25.173 11.324-22.403 0-37.631-13.122-37.631-37.03V29.45h22.396v46.417c0 15.818 7.105 22.648 20.114 22.648 13.008 0 20.294-9.346 20.294-22.648V29.449h22.396v89.875zm100.355-89.765v89.781H229.32l-2.101-9.337c-3.791 4.849-13.718 10.415-25.81 10.415-25.81 0-45.302-19.034-45.302-45.968 0-26.935 19.492-45.968 45.302-45.968 11.912 0 22.019 5.566 25.81 10.414l2.101-9.337h18.113zm-45.332 20.187c-13.74 0-24.335 11.199-24.335 24.704s10.595 24.704 24.335 24.704c13.41 0 23.672-11.2 23.672-24.704 0-13.505-10.263-24.704-23.672-24.704z"/></g><path fill="#FFD500" fill-rule="nonzero" d="M106 131L129 131 129 41 106 41z"/><g transform="translate(102)"><mask id="b" fill="#fff"><use xlink:href="#a"/></mask><path d="M30.383 15.543c0 8.349-6.677 15.117-14.915 15.117C7.231 30.66.553 23.892.553 15.543.553 7.195 7.231.427 15.468.427c8.238 0 14.915 6.768 14.915 15.116" fill="#FFD500" fill-rule="nonzero" mask="url(#b)"/></g></g></svg>